<svg width="247px" height="65px" viewBox="0 0 247 65" version="1.1" xmlns="http://www.w3.org/2000/svg" xmlns:xlink="http://www.w3.org/1999/xlink">
  <defs>
    <linearGradient x1="49.7132353%" y1="100.000155%" x2="49.7132353%" y2="-0.00404291712%" id="linearGradient-1">
      <stop stop-color="#EFFF62" offset="0%"></stop>
      <stop stop-color="#86E7CA" stop-opacity="0.99" offset="50%"></stop>
      <stop stop-color="#2362E0" offset="100%"></stop>
    </linearGradient>
  </defs>
  <g id="📱-Mobile" stroke="none" stroke-width="1" fill="none" fill-rule="evenodd">
    <g id="0a.-Navigatie" transform="translate(-24.000000, -24.000000)">
      <g id="Head">
        <g id="Logo" transform="translate(24.000000, 24.000000)">
          <g id="Group" transform="translate(192.000000, 8.000000)" fill="#FFFFFF" class="text extra">
            <path d="M0.355063291,7.93375 L0.355063291,0.281875 C0.459493671,0.26125 0.598734177,0.2475 0.765822785,0.2475 C0.932911392,0.2475 1.08607595,0.26125 1.21139241,0.281875 L1.21139241,7.93375 C1.07911392,7.954375 0.932911392,7.968125 0.765822785,7.968125 C0.598734177,7.968125 0.459493671,7.96125 0.355063291,7.93375 Z" id="Path"></path>
            <path d="M7.62341772,4.351875 C7.62341772,3.905 7.56075949,3.581875 7.44936709,3.389375 C7.33101266,3.196875 7.14303797,3.100625 6.87848101,3.100625 C6.62088608,3.100625 6.35632911,3.17625 6.0778481,3.334375 C5.79936709,3.4925 5.56265823,3.705625 5.36772152,3.97375 L5.36772152,7.940625 C5.25632911,7.96125 5.11708861,7.975 4.95,7.975 C4.78291139,7.975 4.64367089,7.96125 4.53227848,7.940625 L4.53227848,2.481875 L4.60189873,2.40625 L4.9221519,2.40625 C5.10316456,2.40625 5.22151899,2.454375 5.28417722,2.54375 C5.34683544,2.64 5.37468354,2.784375 5.37468354,2.98375 L5.37468354,3.155625 C5.85506329,2.619375 6.40506329,2.35125 7.03164557,2.35125 C7.65822785,2.35125 8.08987342,2.633125 8.31265823,3.19 C8.93227848,2.62625 9.54493671,2.35125 10.1506329,2.35125 C10.6240506,2.35125 10.9860759,2.509375 11.2158228,2.825625 C11.4525316,3.141875 11.5708861,3.56125 11.5708861,4.076875 L11.5708861,6.881875 C11.5708861,7.308125 11.6126582,7.624375 11.7101266,7.8375 C11.5848101,7.954375 11.4037975,8.01625 11.1740506,8.01625 C10.8886076,8.01625 10.7424051,7.830625 10.7424051,7.46625 L10.7424051,4.351875 C10.7424051,3.905 10.6867089,3.581875 10.5683544,3.39625 C10.45,3.20375 10.2620253,3.1075 9.99746835,3.1075 C9.73987342,3.1075 9.47531646,3.183125 9.20379747,3.334375 C8.93227848,3.485625 8.68860759,3.691875 8.47974684,3.96 L8.47974684,7.9475 C8.36835443,7.968125 8.22911392,7.981875 8.06202532,7.981875 C7.89493671,7.981875 7.7556962,7.968125 7.6443038,7.9475 L7.6443038,4.351875 L7.62341772,4.351875 Z" id="Path"></path>
            <path d="M15.4835443,7.569375 L15.4835443,9.79 C15.4835443,9.989375 15.4556962,10.13375 15.393038,10.223125 C15.3303797,10.305625 15.2120253,10.35375 15.0310127,10.35375 L14.7246835,10.35375 L14.6550633,10.285 L14.6550633,2.475 L14.7246835,2.40625 L15.0170886,2.40625 C15.1981013,2.40625 15.3234177,2.454375 15.3860759,2.54375 C15.4487342,2.633125 15.4835443,2.79125 15.4835443,2.9975 L15.4835443,3.0525 C15.9360759,2.550625 16.4791139,2.303125 17.1056962,2.303125 C17.7462025,2.303125 18.2335443,2.5575 18.5607595,3.073125 C18.8879747,3.58875 19.0481013,4.29 19.0481013,5.1975 C19.0481013,5.6375 18.9924051,6.03625 18.8740506,6.386875 C18.7556962,6.7375 18.6025316,7.033125 18.4075949,7.280625 C18.2126582,7.52125 17.9898734,7.706875 17.7392405,7.8375 C17.4886076,7.968125 17.2310127,8.036875 16.9664557,8.036875 C16.4512658,8.023125 15.956962,7.871875 15.4835443,7.569375 Z M15.4835443,3.925625 L15.4835443,6.813125 C15.943038,7.15 16.3746835,7.321875 16.785443,7.321875 C17.1962025,7.321875 17.5303797,7.143125 17.7949367,6.77875 C18.0594937,6.42125 18.1917722,5.878125 18.1917722,5.149375 C18.1917722,4.791875 18.156962,4.475625 18.0943038,4.214375 C18.0316456,3.953125 17.9481013,3.72625 17.8367089,3.554375 C17.7322785,3.375625 17.606962,3.245 17.4677215,3.1625 C17.328481,3.08 17.1822785,3.031875 17.0221519,3.031875 C16.7227848,3.031875 16.4303797,3.1075 16.1658228,3.265625 C15.8943038,3.42375 15.664557,3.64375 15.4835443,3.925625 Z" id="Shape" fill-rule="nonzero"></path>
            <path d="M21.2481013,2.825625 C21.3037975,2.633125 21.4221519,2.475 21.6101266,2.358125 C22.0348101,2.51625 22.3063291,2.84625 22.4246835,3.355 C22.7379747,2.695 23.2392405,2.371875 23.9424051,2.371875 C24.1025316,2.371875 24.2765823,2.385625 24.464557,2.42 C24.464557,2.743125 24.4018987,3.004375 24.2696203,3.20375 C24.1791139,3.196875 24.0468354,3.19 23.8727848,3.19 C23.2601266,3.19 22.8006329,3.526875 22.4873418,4.2075 L22.4873418,7.940625 C22.3759494,7.96125 22.2297468,7.975 22.0696203,7.975 C21.9025316,7.975 21.7632911,7.96125 21.6518987,7.940625 L21.6518987,3.97375 C21.6588608,3.458125 21.5265823,3.08 21.2481013,2.825625 Z" id="Path"></path>
            <path d="M29.8740506,7.48 C29.4702532,7.87875 28.9481013,8.07125 28.3075949,8.07125 C27.9316456,8.07125 27.5974684,8.0025 27.3050633,7.858125 C27.0126582,7.71375 26.7689873,7.52125 26.5670886,7.266875 C26.3651899,7.019375 26.2120253,6.716875 26.114557,6.359375 C26.0101266,6.001875 25.9613924,5.616875 25.9613924,5.190625 C25.9613924,4.764375 26.0101266,4.3725 26.114557,4.021875 C26.2189873,3.664375 26.3651899,3.361875 26.5670886,3.1075 C26.7689873,2.853125 27.0126582,2.65375 27.3050633,2.51625 C27.5974684,2.371875 27.9316456,2.303125 28.3075949,2.303125 C28.6835443,2.303125 29.0246835,2.371875 29.3101266,2.51625 C29.5955696,2.660625 29.8462025,2.86 30.0481013,3.1075 C30.25,3.361875 30.4031646,3.664375 30.5075949,4.021875 C30.6120253,4.379375 30.6677215,4.764375 30.6677215,5.190625 C30.6677215,6.194375 30.4101266,6.9575 29.8740506,7.48 Z M28.314557,7.418125 C28.8018987,7.418125 29.1708861,7.211875 29.428481,6.80625 C29.6860759,6.400625 29.8113924,5.8575 29.8113924,5.18375 C29.8113924,4.888125 29.7835443,4.599375 29.7278481,4.324375 C29.6721519,4.049375 29.5816456,3.815625 29.4632911,3.609375 C29.3449367,3.403125 29.1848101,3.238125 28.9968354,3.12125 C28.8088608,3.004375 28.5791139,2.9425 28.314557,2.9425 C28.056962,2.9425 27.8341772,2.9975 27.6462025,3.114375 C27.4582278,3.23125 27.3050633,3.389375 27.1867089,3.58875 C27.0683544,3.788125 26.9778481,4.02875 26.9221519,4.30375 C26.8664557,4.57875 26.8386076,4.8675 26.8386076,5.18375 C26.8386076,5.5 26.8664557,5.78875 26.9221519,6.056875 C26.9778481,6.325 27.0683544,6.55875 27.1867089,6.765 C27.3050633,6.964375 27.4582278,7.1225 27.6462025,7.239375 C27.8202532,7.363125 28.05,7.418125 28.314557,7.418125 Z" id="Shape" fill-rule="nonzero"></path>
            <path d="M34.5316456,7.21875 L36.0493671,2.43375 C36.1677215,2.40625 36.2791139,2.385625 36.3835443,2.385625 C36.4879747,2.385625 36.6272152,2.40625 36.8082278,2.454375 L36.8291139,2.48875 C36.1329114,4.626875 35.5132911,6.441875 34.9702532,7.93375 C34.8170886,7.968125 34.6360759,7.98875 34.4272152,7.98875 C34.2183544,7.98875 34.0721519,7.954375 33.9886076,7.8925 C33.9120253,7.830625 33.828481,7.679375 33.7449367,7.4525 L32.0531646,2.495625 C32.2481013,2.399375 32.4221519,2.35125 32.5613924,2.35125 C32.7772152,2.35125 32.9234177,2.46125 32.9791139,2.674375 L33.8841772,5.341875 C34.1139241,6.043125 34.2879747,6.64125 34.4202532,7.1225 C34.4411392,7.19125 34.4759494,7.21875 34.5316456,7.21875 Z" id="Path"></path>
            <path d="M39.9724684,3.20375 L39.9724684,7.93375 C39.8538807,7.954375 39.6982345,7.968125 39.5277648,7.968125 C39.3498834,7.968125 39.2016489,7.954375 39.0830613,7.93375 L39.0830613,3.609375 C39.0830613,3.403125 39.0460027,3.25875 38.9718854,3.183125 C38.8977682,3.1075 38.7717688,3.073125 38.5864757,3.073125 L38.4752998,3.073125 C38.4456529,2.990625 38.4234177,2.8875 38.4234177,2.770625 C38.4234177,2.65375 38.4382412,2.54375 38.4752998,2.454375 C38.630946,2.440625 38.7569454,2.426875 38.8458861,2.413125 C38.9422385,2.399375 39.0163558,2.399375 39.0756496,2.399375 L39.172002,2.399375 C39.4240007,2.399375 39.6167055,2.475 39.7575283,2.619375 C39.8983511,2.76375 39.9724684,2.963125 39.9724684,3.20375 Z M38.7865923,0.515625 C38.9125916,0.44 39.0978847,0.405625 39.3424717,0.405625 C39.5722352,0.405625 39.7352931,0.44 39.8242338,0.50875 C39.9131746,0.5775 39.9576449,0.715 39.9576449,0.935 C39.9576449,1.155 39.9131746,1.2925 39.8094104,1.368125 C39.7056462,1.44375 39.5574117,1.47125 39.3424717,1.47125 C39.1497668,1.47125 38.9941206,1.44375 38.875533,1.38875 C38.7569454,1.33375 38.6976516,1.1825 38.6976516,0.935 C38.6976516,0.75625 38.7272985,0.61875 38.7865923,0.515625 Z" id="Shape" fill-rule="nonzero"></path>
            <path d="M47.2094937,4.090625 L47.2094937,6.868125 C47.2094937,7.294375 47.2512658,7.610625 47.3348101,7.82375 C47.2164557,7.940625 47.035443,8.0025 46.7987342,8.0025 C46.5132911,8.0025 46.3670886,7.816875 46.3670886,7.4525 L46.3670886,4.345 C46.3670886,3.89125 46.3113924,3.568125 46.2,3.375625 C46.0886076,3.183125 45.8727848,3.086875 45.5525316,3.086875 C45.2531646,3.086875 44.9398734,3.169375 44.6126582,3.3275 C44.285443,3.485625 44.0139241,3.69875 43.7981013,3.953125 L43.7981013,7.93375 C43.6867089,7.954375 43.5474684,7.968125 43.3803797,7.968125 C43.2132911,7.968125 43.0740506,7.954375 42.9626582,7.93375 L42.9626582,2.46125 L43.0322785,2.3925 L43.3525316,2.3925 C43.5335443,2.3925 43.6518987,2.440625 43.714557,2.53 C43.7772152,2.62625 43.8050633,2.770625 43.8050633,2.97 L43.8050633,3.128125 C44.0626582,2.8875 44.3620253,2.695 44.7101266,2.550625 C45.0582278,2.40625 45.4063291,2.330625 45.7544304,2.330625 C46.2626582,2.330625 46.6316456,2.48875 46.8683544,2.811875 C47.0911392,3.14875 47.2094937,3.568125 47.2094937,4.090625 Z" id="Path"></path>
            <path d="M53.5867089,2.90125 C53.6911392,2.64 53.893038,2.454375 54.1924051,2.35125 C54.3734177,2.454375 54.4987342,2.59875 54.5683544,2.79125 C54.3594937,2.990625 54.2481013,3.39625 54.2481013,3.994375 L54.2481013,7.514375 C54.2481013,8.036875 54.1993671,8.48375 54.1018987,8.848125 C54.0113924,9.2125 53.8721519,9.515 53.6911392,9.741875 C53.5101266,9.975625 53.2803797,10.140625 53.0158228,10.24375 C52.7443038,10.346875 52.4379747,10.401875 52.0759494,10.401875 C51.3658228,10.401875 50.7113924,10.27125 50.1265823,10.02375 C50.1335443,9.7625 50.2101266,9.5425 50.3632911,9.370625 C50.871519,9.61125 51.3867089,9.728125 51.9158228,9.728125 C52.2221519,9.728125 52.4658228,9.686875 52.6677215,9.604375 C52.8626582,9.521875 53.0227848,9.405 53.1411392,9.246875 C53.2594937,9.08875 53.343038,8.903125 53.3848101,8.683125 C53.4335443,8.463125 53.4544304,8.215625 53.4544304,7.940625 L53.4544304,7.2875 C52.9601266,7.7825 52.4101266,8.03 51.7974684,8.03 C51.1848101,8.03 50.7113924,7.775625 50.3772152,7.27375 C50.043038,6.771875 49.8759494,6.06375 49.8759494,5.163125 C49.8759494,4.709375 49.9316456,4.30375 50.05,3.94625 C50.1683544,3.58875 50.321519,3.293125 50.5234177,3.0525 C50.7183544,2.811875 50.9481013,2.62625 51.2056962,2.495625 C51.4632911,2.365 51.7348101,2.303125 52.0202532,2.303125 C52.5981013,2.29625 53.1202532,2.5025 53.5867089,2.90125 Z M53.4544304,6.483125 L53.4544304,3.568125 C53.2386076,3.3825 53.0158228,3.238125 52.7860759,3.141875 C52.5563291,3.045625 52.3474684,2.9975 52.1386076,2.9975 C51.7139241,2.9975 51.3797468,3.183125 51.1221519,3.540625 C50.864557,3.905 50.7392405,4.455 50.7392405,5.176875 C50.7392405,5.89875 50.8506329,6.435 51.0734177,6.785625 C51.2962025,7.13625 51.5677215,7.308125 51.8810127,7.308125 C52.1943038,7.308125 52.4936709,7.2325 52.7651899,7.074375 C53.0367089,6.936875 53.2664557,6.730625 53.4544304,6.483125 Z" id="Shape" fill-rule="nonzero"></path>
          </g>
          <g id="Group" transform="translate(192.000000, 25.000000)" fill="#FFFFFF" class="text extra">
            <path d="M0.378,7.76666667 L0.308,7.7 L0.308,0.406666667 L0.378,0.34 L2.604,0.306666667 C3.43,0.306666667 4.039,0.48 4.424,0.82 C4.809,1.16 4.998,1.64 4.998,2.26 C4.998,2.61333333 4.9,2.93333333 4.704,3.20666667 C4.508,3.48666667 4.235,3.68 3.885,3.8 C4.088,3.86 4.284,3.94666667 4.466,4.06 C4.648,4.17333333 4.809,4.32 4.949,4.49333333 C5.089,4.66666667 5.194,4.86 5.271,5.08 C5.348,5.3 5.383,5.54 5.383,5.80666667 C5.383,6.06 5.334,6.30666667 5.229,6.54666667 C5.124,6.78666667 4.97,7 4.753,7.18666667 C4.536,7.37333333 4.263,7.52 3.934,7.63333333 C3.605,7.74666667 3.199,7.8 2.737,7.8 L0.378,7.76666667 Z M1.183,0.98 L1.183,3.51333333 L2.583,3.51333333 C2.863,3.51333333 3.101,3.48 3.297,3.41333333 C3.493,3.34666667 3.647,3.25333333 3.766,3.14 C3.885,3.02666667 3.969,2.88666667 4.018,2.73333333 C4.067,2.58 4.095,2.42 4.095,2.24 C4.095,1.4 3.605,0.986666667 2.625,0.986666667 C2.282,0.986666667 1.995,0.986666667 1.757,0.986666667 C1.512,0.993333333 1.323,0.986666667 1.183,0.98 Z M1.183,7.12 L2.8,7.10666667 C3.122,7.10666667 3.388,7.06666667 3.598,6.98 C3.808,6.89333333 3.983,6.78666667 4.109,6.66 C4.235,6.52666667 4.326,6.37333333 4.375,6.2 C4.431,6.02666667 4.452,5.84 4.452,5.65333333 C4.452,5.49333333 4.424,5.32666667 4.361,5.15333333 C4.298,4.98 4.2,4.82666667 4.067,4.68 C3.927,4.54 3.752,4.42 3.528,4.32666667 C3.304,4.23333333 3.031,4.18666667 2.702,4.18666667 L1.183,4.18666667 L1.183,7.12 Z" id="Shape" fill-rule="nonzero"></path>
            <path d="M7.98,6.16666667 L7.98,3.46 C7.98,3.07333333 7.931,2.76666667 7.84,2.53333333 C7.973,2.42 8.148,2.36 8.379,2.36 C8.666,2.36 8.813,2.54 8.813,2.89333333 L8.813,5.90666667 C8.813,6.36 8.876,6.68 8.995,6.86 C9.114,7.04 9.331,7.13333333 9.632,7.13333333 C9.933,7.13333333 10.248,7.05333333 10.577,6.9 C10.906,6.74666667 11.179,6.54 11.396,6.29333333 L11.396,2.43333333 C11.438,2.42 11.501,2.40666667 11.578,2.4 C11.655,2.39333333 11.732,2.38666667 11.816,2.38666667 C11.9,2.38666667 11.977,2.39333333 12.047,2.4 C12.117,2.40666667 12.18,2.42 12.236,2.43333333 L12.236,6.26 C12.236,6.84 12.341,7.22666667 12.558,7.42 C12.488,7.62 12.362,7.76 12.173,7.83333333 C11.802,7.72 11.557,7.44666667 11.452,7.02666667 C11.193,7.27333333 10.885,7.47333333 10.521,7.62666667 C10.157,7.78 9.793,7.85333333 9.429,7.85333333 C8.918,7.85333333 8.547,7.7 8.316,7.38666667 C8.099,7.08 7.98,6.67333333 7.98,6.16666667 Z" id="Path"></path>
            <path d="M14.658,7.35333333 C14.665,7.12666667 14.777,6.93333333 14.987,6.76666667 C15.33,6.95333333 15.638,7.08666667 15.911,7.16 C16.184,7.23333333 16.429,7.26666667 16.646,7.26666667 C16.835,7.26666667 17.003,7.24 17.143,7.19333333 C17.283,7.14666667 17.402,7.08666667 17.507,7.00666667 C17.605,6.93333333 17.682,6.84666667 17.738,6.75333333 C17.794,6.66 17.822,6.56666667 17.829,6.47333333 C17.829,6.25333333 17.759,6.07333333 17.619,5.92666667 C17.479,5.78 17.269,5.65333333 16.996,5.55333333 L16.352,5.31333333 C15.862,5.13333333 15.498,4.92 15.253,4.68 C15.008,4.44 14.889,4.14666667 14.889,3.80666667 C14.889,3.58 14.938,3.38 15.036,3.19333333 C15.134,3.00666667 15.274,2.85333333 15.449,2.72 C15.624,2.58666667 15.827,2.48666667 16.065,2.41333333 C16.303,2.34 16.562,2.30666667 16.842,2.30666667 C17.402,2.30666667 17.969,2.42666667 18.529,2.66666667 C18.529,2.92 18.445,3.13333333 18.263,3.3 C17.976,3.18 17.71,3.08666667 17.472,3.04 C17.234,2.98666667 17.017,2.96666667 16.814,2.96666667 C16.464,2.96666667 16.198,3.04 16.023,3.19333333 C15.848,3.34666667 15.757,3.52 15.757,3.71333333 C15.757,3.92666667 15.827,4.08666667 15.96,4.20666667 C16.093,4.32666667 16.317,4.44 16.611,4.54666667 L17.283,4.8 C18.228,5.15333333 18.697,5.68 18.697,6.37333333 C18.697,6.86 18.501,7.23333333 18.116,7.50666667 C17.731,7.78 17.206,7.90666667 16.541,7.90666667 C15.897,7.89333333 15.267,7.71333333 14.658,7.35333333 Z" id="Path"></path>
            <path d="M22.2285,3.18 L22.2285,7.76666667 C22.1092656,7.78666667 21.9527703,7.8 21.7813708,7.8 C21.6025191,7.8 21.4534761,7.78666667 21.3342416,7.76666667 L21.3342416,3.57333333 C21.3342416,3.37333333 21.2969809,3.23333333 21.2224593,3.16 C21.1479378,3.08666667 21.0212512,3.05333333 20.8349474,3.05333333 L20.7231651,3.05333333 C20.6933565,2.97333333 20.671,2.87333333 20.671,2.76 C20.671,2.64666667 20.6859043,2.54 20.7231651,2.45333333 C20.8796603,2.44 21.0063469,2.42666667 21.0957727,2.41333333 C21.1926507,2.4 21.2671722,2.4 21.3267895,2.4 L21.4236675,2.4 C21.6770407,2.4 21.8707967,2.47333333 22.0123876,2.61333333 C22.1539785,2.74666667 22.2285,2.94 22.2285,3.18 Z M21.0361555,0.566666667 C21.1628421,0.493333333 21.3491459,0.46 21.595067,0.46 C21.8260837,0.46 21.9900311,0.493333333 22.0794569,0.56 C22.1688828,0.626666667 22.2135957,0.76 22.2135957,0.973333333 C22.2135957,1.18666667 22.1688828,1.32 22.0645526,1.39333333 C21.9602225,1.46666667 21.8111794,1.49333333 21.595067,1.49333333 C21.401311,1.49333333 21.2448158,1.46666667 21.1255813,1.41333333 C21.0063469,1.36 20.9467297,1.21333333 20.9467297,0.973333333 C20.9467297,0.806666667 20.9765383,0.666666667 21.0361555,0.566666667 Z" id="Shape" fill-rule="nonzero"></path>
            <path d="M29.505,4.03333333 L29.505,6.72666667 C29.505,7.14 29.547,7.44666667 29.631,7.65333333 C29.512,7.76666667 29.33,7.82666667 29.092,7.82666667 C28.805,7.82666667 28.658,7.64666667 28.658,7.29333333 L28.658,4.28 C28.658,3.84 28.602,3.52666667 28.49,3.34 C28.378,3.15333333 28.161,3.06 27.839,3.06 C27.538,3.06 27.223,3.14 26.894,3.29333333 C26.565,3.44666667 26.292,3.65333333 26.075,3.9 L26.075,7.76 C25.963,7.78 25.823,7.79333333 25.655,7.79333333 C25.487,7.79333333 25.347,7.78 25.235,7.76 L25.235,2.45333333 L25.305,2.38666667 L25.627,2.38666667 C25.809,2.38666667 25.928,2.43333333 25.991,2.52 C26.054,2.61333333 26.082,2.75333333 26.082,2.94666667 L26.082,3.1 C26.341,2.86666667 26.642,2.68 26.992,2.54 C27.342,2.4 27.692,2.32666667 28.042,2.32666667 C28.553,2.32666667 28.924,2.48 29.162,2.79333333 C29.386,3.12 29.505,3.52666667 29.505,4.03333333 Z" id="Path"></path>
            <path d="M36.589,5.34 L33.054,5.34 C33.089,6.57333333 33.586,7.18666667 34.524,7.18666667 C35.042,7.18666667 35.595,7.03333333 36.176,6.73333333 C36.344,6.88 36.442,7.06666667 36.484,7.28666667 C35.861,7.69333333 35.161,7.89333333 34.384,7.89333333 C33.985,7.89333333 33.649,7.82 33.369,7.68 C33.089,7.54 32.858,7.34 32.676,7.09333333 C32.494,6.84 32.368,6.54666667 32.284,6.20666667 C32.2,5.86666667 32.158,5.49333333 32.158,5.08666667 C32.158,4.67333333 32.207,4.3 32.312,3.95333333 C32.417,3.61333333 32.564,3.32 32.76,3.07333333 C32.956,2.82666667 33.194,2.63333333 33.474,2.5 C33.754,2.36666667 34.069,2.29333333 34.426,2.29333333 C34.776,2.29333333 35.091,2.35333333 35.371,2.47333333 C35.651,2.59333333 35.882,2.75333333 36.064,2.96 C36.253,3.16666667 36.393,3.41333333 36.491,3.7 C36.589,3.98666667 36.638,4.29333333 36.638,4.62 C36.638,4.75333333 36.631,4.87333333 36.624,4.99333333 C36.617,5.12 36.603,5.23333333 36.589,5.34 Z M33.054,4.72 L35.784,4.72 L35.784,4.58 C35.784,4.08 35.672,3.68 35.455,3.37333333 C35.238,3.06666667 34.902,2.92 34.468,2.92 C34.034,2.92 33.698,3.08666667 33.46,3.40666667 C33.215,3.73333333 33.082,4.16666667 33.054,4.72 Z" id="Shape" fill-rule="nonzero"></path>
            <path d="M38.451,7.35333333 C38.458,7.12666667 38.57,6.93333333 38.78,6.76666667 C39.123,6.95333333 39.431,7.08666667 39.704,7.16 C39.977,7.23333333 40.222,7.26666667 40.446,7.26666667 C40.635,7.26666667 40.803,7.24 40.943,7.19333333 C41.083,7.14666667 41.202,7.08666667 41.307,7.00666667 C41.412,6.92666667 41.482,6.84666667 41.538,6.75333333 C41.594,6.66 41.622,6.56666667 41.629,6.47333333 C41.629,6.25333333 41.559,6.07333333 41.419,5.92666667 C41.279,5.78 41.069,5.65333333 40.796,5.55333333 L40.152,5.31333333 C39.662,5.13333333 39.298,4.92 39.053,4.68 C38.808,4.44 38.689,4.14666667 38.689,3.80666667 C38.689,3.58 38.738,3.38 38.836,3.19333333 C38.934,3.00666667 39.074,2.85333333 39.249,2.72 C39.424,2.58666667 39.627,2.48666667 39.865,2.41333333 C40.103,2.34 40.362,2.30666667 40.642,2.30666667 C41.202,2.30666667 41.769,2.42666667 42.329,2.66666667 C42.329,2.92 42.245,3.13333333 42.063,3.3 C41.776,3.18 41.51,3.08666667 41.272,3.04 C41.034,2.98666667 40.81,2.96666667 40.614,2.96666667 C40.264,2.96666667 39.998,3.04 39.823,3.19333333 C39.641,3.34666667 39.557,3.52 39.557,3.71333333 C39.557,3.92666667 39.627,4.08666667 39.76,4.20666667 C39.893,4.32666667 40.11,4.44 40.411,4.54666667 L41.083,4.8 C42.028,5.15333333 42.497,5.68 42.497,6.37333333 C42.497,6.86 42.301,7.23333333 41.916,7.50666667 C41.531,7.78 41.006,7.90666667 40.341,7.90666667 C39.69,7.89333333 39.06,7.71333333 38.451,7.35333333 Z" id="Path"></path>
            <path d="M44.443,7.35333333 C44.45,7.12666667 44.562,6.93333333 44.772,6.76666667 C45.115,6.95333333 45.423,7.08666667 45.696,7.16 C45.969,7.23333333 46.214,7.26666667 46.438,7.26666667 C46.627,7.26666667 46.795,7.24 46.935,7.19333333 C47.075,7.14666667 47.194,7.08666667 47.299,7.00666667 C47.404,6.92666667 47.474,6.84666667 47.53,6.75333333 C47.586,6.66 47.614,6.56666667 47.621,6.47333333 C47.621,6.25333333 47.551,6.07333333 47.411,5.92666667 C47.271,5.78 47.061,5.65333333 46.788,5.55333333 L46.144,5.31333333 C45.654,5.13333333 45.29,4.92 45.045,4.68 C44.8,4.44 44.681,4.14666667 44.681,3.80666667 C44.681,3.58 44.73,3.38 44.828,3.19333333 C44.926,3.00666667 45.066,2.85333333 45.241,2.72 C45.416,2.58666667 45.619,2.48666667 45.857,2.41333333 C46.095,2.34 46.354,2.30666667 46.634,2.30666667 C47.194,2.30666667 47.761,2.42666667 48.321,2.66666667 C48.321,2.92 48.237,3.13333333 48.055,3.3 C47.768,3.18 47.502,3.08666667 47.264,3.04 C47.026,2.98666667 46.802,2.96666667 46.606,2.96666667 C46.256,2.96666667 45.99,3.04 45.815,3.19333333 C45.633,3.34666667 45.549,3.52 45.549,3.71333333 C45.549,3.92666667 45.619,4.08666667 45.752,4.20666667 C45.885,4.32666667 46.102,4.44 46.403,4.54666667 L47.075,4.8 C48.02,5.15333333 48.489,5.68 48.489,6.37333333 C48.489,6.86 48.293,7.23333333 47.908,7.50666667 C47.523,7.78 46.998,7.90666667 46.333,7.90666667 C45.675,7.89333333 45.052,7.71333333 44.443,7.35333333 Z" id="Path"></path>
          </g>
          <g id="Group" transform="translate(192.000000, 41.000000)" fill="#FFFFFF" class="text extra">
            <path d="M4.52447761,8.45647059 C4.42149254,8.54823529 4.29104478,8.63294118 4.14686567,8.70352941 C3.9958209,8.77411765 3.83791045,8.83764706 3.67313433,8.88705882 C3.50835821,8.93647059 3.33671642,8.97176471 3.1719403,9 C3.00716418,9.02823529 2.8561194,9.04235294 2.73253731,9.04235294 C2.59522388,9.04235294 2.33432836,9.03529412 1.94985075,9.02823529 C1.55850746,9.02117647 1.03671642,9.00705882 0.384477612,8.99294118 L0.315820896,8.92235294 L0.315820896,1.2 L0.384477612,1.12941176 C1.03671642,1.10823529 1.7919403,1.09411765 2.65701493,1.09411765 C3.24059701,1.09411765 3.72119403,1.2 4.11253731,1.40470588 C4.49701493,1.60941176 4.81283582,1.89176471 5.04626866,2.25176471 C5.27970149,2.61176471 5.44447761,3.02823529 5.54059701,3.51529412 C5.63671642,4.00235294 5.68477612,4.52470588 5.68477612,5.07529412 C5.68477612,5.45647059 5.6641791,5.81647059 5.63671642,6.14117647 C5.60925373,6.46588235 5.54059701,6.76941176 5.45134328,7.04470588 C5.36208955,7.32 5.24537313,7.57411765 5.09432836,7.80705882 C4.93641791,8.05411765 4.75104478,8.26588235 4.52447761,8.45647059 Z M1.16029851,8.30823529 L2.63641791,8.32235294 C3.06208955,8.32235294 3.41223881,8.23764706 3.68686567,8.06117647 C3.96149254,7.88470588 4.18119403,7.65882353 4.33910448,7.37647059 C4.49701493,7.09411765 4.61373134,6.76941176 4.67552239,6.41647059 C4.73731343,6.06352941 4.77164179,5.71058824 4.77164179,5.35058824 C4.77164179,4.83529412 4.7441791,4.36235294 4.68925373,3.93176471 C4.63432836,3.50117647 4.53134328,3.12705882 4.36656716,2.81647059 C4.20179104,2.50588235 3.97522388,2.25882353 3.68686567,2.08941176 C3.39850746,1.91294118 3.04149254,1.82823529 2.63641791,1.82823529 L1.16029851,1.81411765 L1.16029851,8.30823529 Z" id="Shape" fill-rule="nonzero"></path>
            <path d="M9.45059701,4.14352941 L9.45059701,9 C9.3330884,9.02117647 9.18620264,9.03529412 9.00993972,9.03529412 C8.83367681,9.03529412 8.68679104,9.02117647 8.56928243,9 L8.56928243,4.56 C8.56928243,4.34823529 8.53256099,4.2 8.45911811,4.12235294 C8.38567523,4.04470588 8.26082233,4.00941176 8.07721513,4.00941176 L7.9670508,4.00941176 C7.93767365,3.92470588 7.92298507,3.81882353 7.92298507,3.69882353 C7.92298507,3.57882353 7.93767365,3.46588235 7.9670508,3.37411765 C8.12128086,3.36 8.24613375,3.34588235 8.3416095,3.33176471 C8.43708525,3.31764706 8.51052813,3.31764706 8.56928243,3.31764706 L8.66475818,3.31764706 C8.91446398,3.31764706 9.10541547,3.39529412 9.24495695,3.54352941 C9.38449842,3.69176471 9.45059701,3.88941176 9.45059701,4.14352941 Z M8.27551091,1.37647059 C8.40036381,1.29882353 8.58397101,1.26352941 8.82633252,1.26352941 C9.06134974,1.26352941 9.21557979,1.29882353 9.30371125,1.36941176 C9.39184271,1.44 9.43590844,1.58117647 9.43590844,1.80705882 C9.43590844,2.03294118 9.39184271,2.17411765 9.28902268,2.25176471 C9.18620264,2.32941176 9.03931688,2.35764706 8.81898823,2.35764706 C8.62803674,2.35764706 8.47380669,2.32941176 8.35629808,2.27294118 C8.23878947,2.21647059 8.18003516,2.06117647 8.18003516,1.80705882 C8.19472374,1.63058824 8.2167566,1.48941176 8.27551091,1.37647059 Z" id="Shape" fill-rule="nonzero"></path>
            <path d="M15.6743284,3.83294118 C15.7773134,3.56470588 15.9764179,3.37411765 16.2716418,3.26823529 C16.4501493,3.37411765 16.5737313,3.52235294 16.6423881,3.72 C16.4364179,3.92470588 16.3265672,4.34117647 16.3265672,4.95529412 L16.3265672,8.56941176 C16.3265672,9.10588235 16.2785075,9.56470588 16.1823881,9.93882353 C16.0931343,10.3129412 15.9558209,10.6235294 15.7773134,10.8564706 C15.598806,11.0964706 15.3722388,11.2658824 15.1113433,11.3717647 C14.8435821,11.4776471 14.5414925,11.5341176 14.1844776,11.5341176 C13.4841791,11.5341176 12.838806,11.4 12.2620896,11.1458824 C12.2689552,10.8776471 12.3444776,10.6517647 12.4955224,10.4752941 C12.9967164,10.7223529 13.5047761,10.8423529 14.0265672,10.8423529 C14.3286567,10.8423529 14.5689552,10.8 14.7680597,10.7152941 C14.9602985,10.6305882 15.118209,10.5105882 15.2349254,10.3482353 C15.3516418,10.1858824 15.4340299,9.99529412 15.4752239,9.76941176 C15.5232836,9.54352941 15.5438806,9.28941176 15.5438806,9.00705882 L15.5438806,8.33647059 C15.0564179,8.84470588 14.5140299,9.09882353 13.9098507,9.09882353 C13.3056716,9.09882353 12.838806,8.83764706 12.5092537,8.32235294 C12.1797015,7.80705882 12.0149254,7.08 12.0149254,6.15529412 C12.0149254,5.68941176 12.0698507,5.27294118 12.1865672,4.90588235 C12.3032836,4.53882353 12.4543284,4.23529412 12.6534328,3.98823529 C12.8456716,3.74117647 13.0722388,3.55058824 13.3262687,3.41647059 C13.5802985,3.28235294 13.8480597,3.21882353 14.1295522,3.21882353 C14.6925373,3.21176471 15.2074627,3.41647059 15.6743284,3.83294118 Z M15.5370149,7.51058824 L15.5370149,4.51764706 C15.3241791,4.32705882 15.1044776,4.17882353 14.8779104,4.08 C14.6513433,3.98117647 14.4453731,3.93176471 14.239403,3.93176471 C13.820597,3.93176471 13.4910448,4.12235294 13.2370149,4.48941176 C12.9829851,4.86352941 12.859403,5.42823529 12.859403,6.16941176 C12.859403,6.91058824 12.9692537,7.46117647 13.1889552,7.82117647 C13.4086567,8.18117647 13.6764179,8.35764706 13.9853731,8.35764706 C14.2943284,8.35764706 14.5895522,8.28 14.8573134,8.11764706 C15.1250746,7.96941176 15.3516418,7.76470588 15.5370149,7.51058824 Z" id="Shape" fill-rule="nonzero"></path>
            <path d="M20.3807463,4.14352941 L20.3807463,9 C20.2637999,9.02117647 20.1103078,9.03529412 19.9421974,9.03529412 C19.7667778,9.03529412 19.6205949,9.02117647 19.5036485,9 L19.5036485,4.56 C19.5036485,4.34823529 19.4671028,4.2 19.3940113,4.12235294 C19.3209198,4.04470588 19.1966643,4.00941176 19.0139356,4.00941176 L18.9042984,4.00941176 C18.8750618,3.92470588 18.8531343,3.81882353 18.8531343,3.69882353 C18.8531343,3.57882353 18.8677526,3.46588235 18.9042984,3.37411765 C19.0577905,3.36 19.182046,3.34588235 19.2697558,3.33176471 C19.3647747,3.31764706 19.4378662,3.31764706 19.4963394,3.31764706 L19.5913583,3.31764706 C19.8398693,3.31764706 20.0299072,3.39529412 20.168781,3.54352941 C20.3076548,3.68470588 20.3807463,3.88941176 20.3807463,4.14352941 Z M19.2112826,1.37647059 C19.3355381,1.29882353 19.5182668,1.26352941 19.7594687,1.26352941 C19.9860523,1.26352941 20.1468535,1.29882353 20.2345633,1.36941176 C20.3222731,1.44 20.366128,1.58117647 20.366128,1.80705882 C20.366128,2.03294118 20.3222731,2.17411765 20.219945,2.25176471 C20.1176169,2.32941176 19.971434,2.35764706 19.7594687,2.35764706 C19.5694308,2.35764706 19.4159387,2.32941176 19.2989924,2.27294118 C19.182046,2.21647059 19.1235728,2.06117647 19.1235728,1.80705882 C19.1235728,1.63058824 19.1528094,1.48941176 19.2112826,1.37647059 Z" id="Shape" fill-rule="nonzero"></path>
            <path d="M25.6776119,3.34588235 C25.698209,3.45882353 25.7119403,3.57176471 25.7119403,3.67058824 C25.7119403,3.76941176 25.698209,3.88235294 25.6776119,3.99529412 L24.2564179,3.98117647 L24.2564179,7.84941176 C24.2564179,8.17411765 24.400597,8.32941176 24.6889552,8.32941176 L25.5402985,8.32941176 C25.5952239,8.46352941 25.6226866,8.59058824 25.6226866,8.71764706 C25.6226866,8.84470588 25.6158209,8.92941176 25.6020896,8.95764706 C25.258806,9 24.901791,9.02823529 24.5379104,9.02823529 C23.8170149,9.02823529 23.4531343,8.71058824 23.4531343,8.07529412 L23.4531343,3.98117647 L22.6567164,3.99529412 C22.6361194,3.88235294 22.6223881,3.76941176 22.6223881,3.67058824 C22.6223881,3.57176471 22.6361194,3.45882353 22.6567164,3.34588235 L23.4531343,3.36 L23.4531343,2.15294118 C23.4531343,1.94823529 23.480597,1.8 23.5423881,1.70823529 C23.6041791,1.62352941 23.7208955,1.57411765 23.8925373,1.57411765 L24.1946269,1.57411765 L24.2632836,1.64470588 L24.2632836,3.37411765 L25.6776119,3.34588235 Z" id="Path"></path>
            <path d="M31.4310448,8.64 C31.3486567,8.85176471 31.2250746,9 31.0534328,9.07764706 C30.6895522,8.93647059 30.4561194,8.66823529 30.36,8.27294118 C29.7832836,8.85176471 29.2202985,9.13411765 28.6710448,9.13411765 C28.3895522,9.13411765 28.1423881,9.09176471 27.9295522,8.99294118 C27.7235821,8.90117647 27.5450746,8.78117647 27.4077612,8.62588235 C27.2704478,8.47058824 27.1674627,8.29411765 27.0919403,8.09647059 C27.0164179,7.89882353 26.9820896,7.68705882 26.9820896,7.46117647 C26.9820896,7.15764706 27.0301493,6.88235294 27.1331343,6.64941176 C27.2361194,6.41647059 27.3734328,6.21882353 27.5450746,6.07058824 C27.7235821,5.91529412 27.9295522,5.80235294 28.1629851,5.72470588 C28.3964179,5.64705882 28.6573134,5.61176471 28.9319403,5.61176471 C29.4949254,5.61176471 29.9480597,5.64705882 30.298209,5.71764706 L30.298209,5.13882353 C30.298209,4.34823529 29.961791,3.96 29.2889552,3.96 C28.7740299,3.96 28.1698507,4.12235294 27.4626866,4.44 C27.2704478,4.26352941 27.1743284,4.03764706 27.1743284,3.76941176 C27.9776119,3.40941176 28.7122388,3.22588235 29.3713433,3.22588235 C30.5247761,3.22588235 31.1083582,3.86823529 31.1083582,5.14588235 L31.1083582,7.51764706 C31.1014925,7.79294118 31.1220896,8.01882353 31.1838806,8.20235294 C31.2525373,8.39294118 31.3280597,8.53411765 31.4310448,8.64 Z M30.3119403,7.48941176 L30.3119403,6.33882353 C30.1334328,6.31058824 29.9480597,6.28941176 29.7558209,6.27529412 C29.5635821,6.26117647 29.3576119,6.26117647 29.1447761,6.26117647 C28.7191045,6.26117647 28.3964179,6.36 28.1767164,6.56470588 C27.9570149,6.76941176 27.8402985,7.03764706 27.8402985,7.36235294 C27.8402985,7.68705882 27.9158209,7.94117647 28.0737313,8.12470588 C28.2316418,8.31529412 28.4444776,8.40705882 28.7122388,8.40705882 C28.9868657,8.40705882 29.2683582,8.32941176 29.5498507,8.17411765 C29.838209,8.01882353 30.0922388,7.78588235 30.3119403,7.48941176 Z" id="Shape" fill-rule="nonzero"></path>
            <path d="M35.3170149,8.32941176 L35.7838806,8.32941176 C35.8113433,8.4 35.8319403,8.47764706 35.8456716,8.56235294 C35.859403,8.64705882 35.8662687,8.72470588 35.8662687,8.79529412 C35.8662687,8.84470588 35.8662687,8.88 35.859403,8.90823529 C35.8525373,8.93647059 35.8525373,8.95764706 35.8525373,8.97176471 C35.7358209,8.99294118 35.6191045,9.01411765 35.5092537,9.02823529 C35.399403,9.04235294 35.2826866,9.04941176 35.1728358,9.04941176 C34.8638806,9.04941176 34.6098507,8.97882353 34.4038806,8.83764706 C34.1979104,8.69647059 34.0880597,8.44235294 34.0880597,8.08235294 L34.0880597,0.6 L34.1567164,0.529411765 L34.458806,0.529411765 C34.6373134,0.529411765 34.7608955,0.571764706 34.8158209,0.663529412 C34.8776119,0.748235294 34.9050746,0.896470588 34.9050746,1.10823529 L34.9050746,7.82823529 C34.9050746,8.16705882 35.0423881,8.32941176 35.3170149,8.32941176 Z" id="Path"></path>
            <path d="M39.5256716,8.32941176 L39.999403,8.32941176 C40.0268657,8.4 40.0474627,8.47764706 40.061194,8.56235294 C40.0749254,8.64705882 40.0749254,8.72470588 40.0749254,8.79529412 C40.0749254,8.84470588 40.0749254,8.88 40.0680597,8.90823529 C40.061194,8.93647059 40.061194,8.95764706 40.061194,8.97176471 C39.9444776,8.99294118 39.8277612,9.01411765 39.7110448,9.02823529 C39.601194,9.04235294 39.4844776,9.04941176 39.3746269,9.04941176 C39.0656716,9.04941176 38.8116418,8.97882353 38.6056716,8.83764706 C38.3997015,8.69647059 38.2898507,8.44235294 38.2898507,8.08235294 L38.2898507,0.6 L38.3585075,0.529411765 L38.660597,0.529411765 C38.8391045,0.529411765 38.9558209,0.571764706 39.0176119,0.663529412 C39.079403,0.748235294 39.1068657,0.896470588 39.1068657,1.10823529 L39.1068657,7.82823529 C39.1137313,8.16705882 39.2510448,8.32941176 39.5256716,8.32941176 Z" id="Path"></path>
            <path d="M45.54,3.40235294 L44.0089552,8.80235294 C43.7274627,9.79058824 43.4253731,10.4894118 43.1026866,10.8988235 C42.78,11.3082353 42.299403,11.5058824 41.6608955,11.5058824 C41.3313433,11.5058824 41.0292537,11.4564706 40.7546269,11.3576471 C40.7340299,11.1458824 40.7889552,10.9341176 40.9331343,10.7364706 C41.1665672,10.8211765 41.4137313,10.8635294 41.6677612,10.8635294 C42.0659701,10.8635294 42.3680597,10.7223529 42.5740299,10.4470588 C42.78,10.1717647 42.9722388,9.74117647 43.1438806,9.15529412 L43.178209,9.04235294 C42.9859701,9.02823529 42.8349254,8.97882353 42.738806,8.90117647 C42.6358209,8.82352941 42.5534328,8.68235294 42.4847761,8.47764706 L40.919403,3.41647059 C41.1528358,3.31764706 41.3176119,3.26823529 41.4137313,3.26823529 C41.6265672,3.26823529 41.7776119,3.40235294 41.8462687,3.67058824 L42.7319403,6.55764706 C42.759403,6.64941176 42.9310448,7.24941176 43.2468657,8.35058824 C43.260597,8.40705882 43.301791,8.42823529 43.3567164,8.42823529 L44.7229851,3.33882353 C44.8191045,3.31058824 44.9495522,3.28941176 45.1074627,3.28941176 C45.2653731,3.28941176 45.4026866,3.31058824 45.519403,3.36 L45.54,3.40235294 Z" id="Path"></path>
          </g>
          <path d="M178.5,50 C178.220588,50 178,49.7947442 178,49.5347535 L178,6.46524646 C178,6.20525579 178.220588,6 178.5,6 C178.779412,6 179,6.20525579 179,6.46524646 L179,49.5347535 C179,49.7947442 178.772059,50 178.5,50 Z" id="Path" fill="url(#linearGradient-1)" class="extra"></path>
          <g id="Group" fill="#FFFFFF" class="text">
            <g transform="translate(0.000000, 3.457447)" id="Path">
              <path d="M7.32795082,7.75159574 C9.13569672,7.61329787 10.2646721,7.41276596 10.714877,7.14308511 C11.165082,6.87340426 11.4629098,5.78776596 11.5945082,3.89308511 C11.4559836,1.86702128 11.0958197,0.746808511 10.5140164,0.546276596 C9.92528689,0.345744681 8.86557377,0.17287234 7.32795082,0.0414893617 C5.34012295,0.131382979 4.1072541,0.394148936 3.63627049,0.82287234 C3.16528689,1.25159574 2.92286885,2.275 2.92286885,3.9 C2.92286885,5.07553191 3.12372951,6.0643617 3.53237705,6.87340426 C4.30118852,7.45425532 5.56868852,7.75159574 7.32795082,7.75159574 Z"></path>
              <path d="M6.64918033,12.9585106 L5.76954918,12.9585106 C4.91069672,12.9585106 4.07262295,12.9792553 3.2622541,13.0276596 C2.45188525,13.0760638 1.63459016,13.1382979 0.824221311,13.2281915 C0.685696721,13.7675532 0.595655738,14.2446809 0.554098361,14.6457447 C0.505614754,15.0537234 0.484836066,15.4340426 0.484836066,15.793617 C0.484836066,16.2015957 0.505614754,16.5957447 0.554098361,16.9760638 C0.595655738,17.356383 0.692622951,17.7989362 0.824221311,18.2968085 L2.1817623,18.2968085 C3.2622541,18.2968085 4.02413934,18.5664894 4.45356557,19.1058511 C4.8829918,19.6452128 5.09770492,20.5510638 5.09770492,21.8095745 L5.09770492,48.7292553 C5.09770492,49.9047872 5.02151639,50.9074468 4.86221311,51.737234 C4.70290984,52.5739362 4.44663934,53.3138298 4.07954918,53.9707447 C3.71938525,54.6207447 3.22069672,55.2015957 2.59040984,55.6925532 C1.96012295,56.1904255 1.17053279,56.6606383 0.221639344,57.1101064 C0.401721311,58.8664894 1.0804918,60.2909574 2.25102459,61.3696809 C3.87868852,60.9617021 5.29856557,60.4984043 6.51758197,59.9867021 C7.73659836,59.4680851 8.7547541,58.6452128 9.56512295,57.5180851 C10.3754918,56.3909574 10.985,54.8696809 11.3936475,52.9542553 C11.8022951,51.0388298 12.0031557,48.5010638 12.0031557,45.3478723 L12.0031557,18.9675532 C12.0031557,17.0728723 11.5252459,15.6 10.5832787,14.5351064 C9.64131148,13.4702128 8.31840164,12.9585106 6.64918033,12.9585106 Z"></path>
            </g>
            <path d="M35.8501639,30.6882979 L31.7844672,29.1324468 C30.2953279,28.5446809 29.2217623,27.9569149 28.5637705,27.3760638 C27.9057787,26.7882979 27.5802459,25.9585106 27.5802459,24.8728723 C27.5802459,23.787234 28.0235246,22.8882979 28.9031557,22.1691489 C29.7827869,21.45 30.9671721,21.0835106 32.4632377,21.0835106 C35.2614344,21.0835106 38.267418,21.8303191 41.4742623,23.3170213 C42.1045492,22.7776596 42.6170902,22.0101064 42.9980328,21.0143617 C43.3789754,20.0255319 43.5729098,19.0781915 43.5729098,18.1723404 C39.957418,16.5473404 36.3211475,15.7382979 32.6640984,15.7382979 C29.0486066,15.7382979 26.1257377,16.6303191 23.8885656,18.4074468 C21.6513934,20.1914894 20.5362705,22.6324468 20.5362705,25.7441489 C20.5362705,30.031383 23.389877,33.2537234 29.1040164,35.4180851 L32.8788115,36.8356383 C35.7116393,37.9143617 37.1315164,39.4494681 37.1315164,41.4340426 C37.1315164,42.6994681 36.577418,43.7090426 35.4761475,44.4765957 C34.374877,45.2441489 32.6779508,45.6244681 30.3784426,45.6244681 C28.127418,45.6244681 25.2045492,44.6356383 21.6029098,42.6510638 C21.0141803,43.1904255 20.5016393,43.9510638 20.0514344,44.9191489 C19.6012295,45.887234 19.3518852,46.7585106 19.3103279,47.5260638 C23.057418,49.7803191 26.9915164,50.9074468 31.0987705,50.9074468 C35.2060246,50.9074468 38.4613525,50.0085106 40.8578279,48.2037234 C43.2543033,46.3989362 44.4456148,43.9441489 44.4456148,40.8324468 C44.452541,36.2824468 41.585082,32.8941489 35.8501639,30.6882979 Z" id="Path"></path>
            <path d="M60.3066803,16.7547872 L60.3066803,6.74202128 L59.8356967,6.27180851 L57.189877,6.27180851 C55.7907787,6.27180851 54.8211066,6.6106383 54.2739344,7.28829787 C53.7336885,7.96595745 53.4635656,9.11382979 53.4635656,10.7388298 L53.4635656,16.6925532 L48.4489754,16.5542553 C48.2688934,17.4117021 48.1788525,18.3037234 48.1788525,19.2234043 C48.1788525,20.15 48.2688934,20.993617 48.4489754,21.7611702 L53.4635656,21.6920213 L53.4635656,43.3356383 C53.4635656,47.9824468 55.8323361,50.3058511 60.5768033,50.3058511 C63.0148361,50.3058511 65.5429098,50.1468085 68.1679508,49.8287234 C68.2579918,49.5106383 68.3064754,48.8329787 68.3064754,47.8095745 C68.3064754,46.7861702 68.1263934,45.7696809 67.7662295,44.7601064 L63.0910246,44.7601064 C61.2417213,44.7601064 60.3136066,43.7712766 60.3136066,41.793617 L60.3136066,21.6297872 L68.6458607,21.7680851 C68.8744262,21.0489362 68.9852459,20.1914894 68.9852459,19.1957447 C68.9852459,18.2069149 68.8744262,17.3218085 68.6458607,16.5542553 L60.3066803,16.7547872 Z" id="Path"></path>
            <path d="M129.887582,29.8101064 C132.235574,29.8101064 133.413033,28.5239362 133.413033,25.9585106 C133.413033,24.6930851 133.129057,23.4414894 132.568033,22.2037234 C132.000082,20.9659574 131.189713,19.8664894 130.13,18.9260638 C129.070287,17.9787234 127.782008,17.2111702 126.265164,16.6234043 C124.74832,16.0356383 123.023689,15.7452128 121.084344,15.7452128 C119.186557,15.7452128 117.392664,16.1255319 115.695738,16.8930851 C113.998811,17.6606383 112.509672,18.7670213 111.221393,20.2053191 C109.933115,21.6505319 108.908033,23.4414894 108.139221,25.5851064 C107.37041,27.7287234 106.989467,30.1765957 106.989467,32.9218085 C106.989467,35.5840426 107.273443,38.0180851 107.834467,40.2239362 C108.395492,42.4367021 109.254344,44.3244681 110.411025,45.9079787 C111.560779,47.4845745 113.008361,48.7154255 114.746844,49.593617 C116.485328,50.4718085 118.549344,50.9143617 120.94582,50.9143617 C125.690287,50.9143617 129.728279,49.2478723 133.073648,45.9079787 C132.893566,45.1404255 132.512623,44.3521277 131.923893,43.5430851 C131.335164,42.7340426 130.732582,42.1462766 130.102295,41.7867021 C127.179426,44.0409574 124.450492,45.1680851 121.93627,45.1680851 C116.852418,45.1680851 114.310492,41.2888298 114.310492,33.537234 C114.310492,29.4367021 114.892295,26.3457447 116.062828,24.2712766 C117.233361,22.1968085 118.895656,21.1595745 121.049713,21.1595745 C125.00459,21.1595745 126.978566,23.7042553 126.978566,28.8005319 L126.978566,29.5473404 C127.740451,29.7202128 128.710123,29.8101064 129.887582,29.8101064 Z" id="Path"></path>
            <path d="M165.523033,43.0659574 L163.216598,37.4510638 C161.859057,34.1111702 159.781189,32.0851064 156.982992,31.3659574 C157.793361,30.6882979 158.541393,29.8101064 159.220164,28.7244681 L166.603525,17.0244681 L166.194877,16.4851064 C165.336025,16.4367021 164.026967,16.4159574 162.267705,16.4159574 C160.508443,16.4159574 159.060861,17.4117021 157.931885,19.3893617 L151.968402,28.7244681 C151.608238,29.3537234 151.061066,29.6718085 150.340738,29.6718085 L148.034303,29.8101064 L148.034303,4.78510638 C148.034303,3.16010638 147.76418,2.01223404 147.223934,1.33457447 C146.683689,0.656914894 145.70709,0.318085106 144.307992,0.318085106 L141.599836,0.318085106 L141.191189,0.72606383 L141.191189,50.0361702 C142.091598,50.2159574 143.248279,50.3058511 144.647377,50.3058511 C146.046475,50.3058511 147.175451,50.2159574 148.034303,50.0361702 L148.034303,35.6255319 C149.481885,35.5356383 150.742459,35.487234 151.829877,35.487234 C152.917295,35.487234 153.852336,35.7914894 154.641926,36.4 C155.431516,37.0085106 156.186475,38.1909574 156.91373,39.9473404 L159.621885,46.5787234 C160.162131,47.9755319 160.750861,48.9781915 161.381148,49.5867021 C162.011434,50.1952128 162.91877,50.4994681 164.089303,50.4994681 C165.938607,50.4994681 167.497008,49.7803191 168.764508,48.3351064 C167.649385,47.5744681 166.561967,45.8180851 165.523033,43.0659574 Z" id="Path"></path>
            <path d="M100.167131,27.1547872 C100.167131,23.3585106 99.1905328,20.5234043 97.2442623,18.6494681 C95.2979918,16.7755319 92.5552049,15.8351064 89.0297541,15.8351064 C84.2783607,15.8351064 79.5893033,16.8723404 74.9764344,18.9537234 C75.0179918,21.2148936 75.7036885,22.9090426 77.0127459,24.0361702 C81.5355738,22.2728723 85.0956557,21.3946809 87.6722131,21.3946809 C91.3846721,21.3946809 93.2409016,23.4207447 93.2409016,27.4797872 L93.2409016,41.2611702 C90.7959426,43.9718085 88.122418,45.3271277 85.2272541,45.3271277 C83.8212295,45.3271277 82.7130328,44.8638298 81.9026639,43.937234 C81.0853689,43.0106383 80.6836475,41.731383 80.6836475,40.106383 C80.6836475,38.4329787 81.2585246,37.0914894 82.4152049,36.075 C83.412582,35.1968085 84.7631967,34.6920213 86.460123,34.5744681 L86.4670492,34.581383 C86.7163934,33.5787234 86.7787295,32.5898936 86.6748361,31.6010638 C86.5709426,30.612234 86.460123,29.9691489 86.342377,29.6648936 C82.5814344,29.7271277 79.5477459,30.6744681 77.2482377,32.5069149 C74.872541,34.4015957 73.6812295,37.2090426 73.6812295,40.9154255 C73.6812295,42.2292553 73.8959426,43.4808511 74.3253689,44.6771277 C74.7547951,45.8734043 75.4127869,46.9382979 76.292418,47.8648936 C77.1720492,48.7914894 78.2594672,49.5244681 79.5546721,50.0707447 C80.8429508,50.6101064 82.3459426,50.8867021 84.0705738,50.8867021 C87.4644262,50.8867021 90.7682377,49.3515957 93.9820082,46.2744681 C94.9309016,48.5771277 96.7455738,49.9808511 99.4121721,50.4787234 C100.631189,49.7111702 101.517746,48.5148936 102.057992,46.8829787 C100.790492,45.7973404 100.153279,43.8542553 100.153279,41.0537234 L100.153279,27.1547872 L100.167131,27.1547872 Z" id="Path"></path>
          </g>
        </g>
      </g>
    </g>
  </g>
</svg>